<?xml version="1.0" standalone="no"?>
<!DOCTYPE svg PUBLIC "-//W3C//DTD SVG 20010904//EN"
 "http://www.w3.org/TR/2001/REC-SVG-20010904/DTD/svg10.dtd">
<svg version="1.0" xmlns="http://www.w3.org/2000/svg"
 width="567.000000pt" height="276.000000pt" viewBox="0 0 567.000000 276.000000"
 preserveAspectRatio="xMidYMid meet">
<metadata>
Created by potrace 1.16, written by Peter Selinger 2001-2019
</metadata>
<g transform="translate(0.000000,276.000000) scale(0.100000,-0.100000)"
fill="#000000" stroke="none">
<path d="M11 2572 l-1 -189 39 -1 c22 -1 42 2 45 6 3 5 -5 90 -17 190 -20 173
-22 182 -43 182 -21 0 -21 -2 -23 -188z"/>
<path d="M155 2728 c3 -18 12 -100 20 -183 8 -82 19 -152 23 -156 13 -13 113
-14 121 -1 4 7 4 37 0 68 -4 30 -10 98 -14 152 -10 162 -5 152 -86 152 l-70 0
6 -32z"/>
<path d="M937 2753 c-4 -3 -7 -17 -7 -30 0 -12 -5 -23 -10 -23 -18 0 -21 -25
-9 -56 11 -29 13 -120 2 -138 -3 -5 -6 -40 -7 -77 -1 -69 -1 -69 30 -79 18 -6
40 -20 49 -30 25 -27 42 -25 49 6 7 27 -16 75 -54 109 -18 17 -20 30 -20 172
0 140 -4 166 -23 146z"/>
<path d="M1099 2708 c-1 -29 0 -96 1 -149 1 -53 -3 -122 -10 -153 -18 -89 5
-100 143 -65 40 11 45 20 22 39 -25 21 -18 68 14 101 16 16 25 29 20 29 -5 0
-9 12 -9 26 0 34 29 146 41 159 5 5 42 8 82 7 39 -2 87 2 106 7 39 12 91 -9
91 -35 0 -12 4 -14 13 -7 22 16 132 16 146 0 9 -11 9 -17 1 -22 -6 -4 -14 -4
-17 -1 -11 11 -63 -25 -63 -44 0 -11 -11 -38 -25 -60 -14 -22 -33 -63 -43 -92
-9 -28 -23 -54 -31 -56 -9 -3 -11 1 -7 14 3 11 2 25 -3 32 -6 10 -12 9 -28 -5
-24 -21 -47 -83 -35 -95 12 -12 100 2 99 16 -1 6 7 37 17 69 16 52 20 57 39
50 12 -4 45 -7 72 -8 54 0 54 0 41 -65 -5 -26 -4 -31 3 -20 6 8 11 24 11 35 0
11 6 29 14 40 20 29 46 123 46 166 0 28 6 42 22 53 30 21 71 20 92 -2 15 -18
15 -26 -9 -128 -13 -60 -32 -133 -40 -163 -10 -31 -13 -57 -8 -62 5 -5 39 -12
75 -16 87 -8 100 5 122 123 34 178 42 208 59 218 21 13 41 -10 30 -34 -4 -8
-6 -34 -6 -57 1 -24 -6 -85 -16 -137 -20 -105 -16 -120 29 -104 21 7 34 6 52
-5 25 -16 204 -28 273 -18 l40 6 1 115 c0 63 4 124 8 135 4 11 13 33 19 49 6
17 22 32 38 38 19 6 39 28 59 63 16 29 30 55 30 59 0 3 -364 6 -810 6 l-810 0
-1 -52z"/>
<path d="M2830 2692 c0 -71 20 -118 46 -108 7 3 16 1 20 -5 3 -6 18 -8 32 -5
45 9 143 7 212 -4 36 -6 84 -13 108 -16 25 -4 46 -13 51 -23 5 -9 19 -72 31
-141 12 -69 25 -128 29 -132 9 -10 185 -28 210 -21 20 5 21 11 21 154 0 129 2
150 16 156 9 3 24 2 33 -4 15 -10 19 -42 30 -265 2 -51 20 -29 23 30 3 49 6
57 23 57 17 0 21 -8 25 -57 3 -31 10 -61 15 -66 17 -16 161 -23 173 -9 5 6 13
70 17 140 6 114 5 131 -11 148 -9 10 -23 19 -31 19 -20 0 -16 19 13 53 48 57
62 55 -576 117 -173 17 -342 35 -375 40 -33 6 -77 10 -97 10 l-38 0 0 -68z"/>
<path d="M4050 2731 c0 -16 6 -33 13 -39 14 -12 81 -22 172 -27 33 -1 74 -5
90 -8 17 -3 42 -1 58 5 24 9 27 16 27 54 l0 44 -180 0 -180 0 0 -29z"/>
<path d="M4456 2726 c-10 -52 6 -80 53 -95 120 -36 -36 -39 -314 -7 -110 13
-122 13 -139 -2 -14 -13 -17 -27 -13 -59 6 -53 21 -73 57 -73 47 0 57 -24 59
-139 2 -105 11 -141 36 -141 21 0 29 37 26 118 -4 117 13 158 53 129 24 -17
41 -137 27 -180 -21 -62 8 -86 79 -67 45 12 49 21 20 50 -29 29 -26 70 7 96
21 17 27 29 26 58 -1 42 6 49 43 40 l26 -7 -7 -109 c-7 -114 -1 -138 35 -138
35 0 45 28 42 125 -3 98 6 121 45 113 20 -4 20 0 9 -89 -5 -45 -4 -73 3 -88
14 -26 22 -26 49 -1 19 18 22 32 22 95 0 63 3 76 19 84 28 15 33 -8 21 -86
-11 -66 -5 -128 13 -151 7 -9 7 -16 0 -23 -12 -12 -335 -15 -545 -4 -144 7
-146 7 -158 -15 -7 -13 -9 -39 -6 -64 15 -101 18 -179 7 -222 -13 -52 0 -118
25 -128 14 -5 12 -10 -10 -27 -25 -20 -27 -25 -24 -92 l3 -72 35 -6 c49 -9 86
-25 92 -41 9 -23 -7 -127 -21 -141 -10 -8 -15 -9 -18 -1 -2 6 -10 19 -17 29
-12 16 -14 16 -40 -9 -18 -16 -26 -31 -22 -42 5 -14 16 -15 74 -9 69 8 105 11
332 20 74 3 149 8 167 11 32 5 32 5 31 63 -1 65 10 97 23 65 4 -10 8 -31 8
-45 1 -36 24 -62 57 -65 16 -1 42 -7 58 -13 43 -17 51 -3 55 100 4 108 -1 128
-35 163 -25 24 -26 27 -10 44 20 23 21 58 0 66 -9 3 -29 6 -44 6 -36 0 -47 16
-27 38 10 12 19 55 25 136 10 113 12 120 41 150 17 18 31 37 31 43 0 6 -13 23
-30 36 -36 31 -37 37 -7 37 45 0 54 19 60 121 5 76 3 100 -9 117 -8 12 -21 22
-29 22 -28 0 -26 23 4 54 38 40 42 71 7 62 -29 -7 -86 11 -86 28 0 6 16 20 35
30 38 21 41 27 24 57 -7 14 -7 29 0 50 l10 29 -178 0 -179 0 -6 -34z m28 -702
c24 -12 36 -25 40 -47 9 -45 6 -105 -7 -172 -12 -55 -15 -60 -41 -63 -44 -5
-59 4 -46 28 8 15 7 27 -4 48 -8 16 -13 38 -10 48 3 10 -2 39 -11 63 -20 57
-19 88 3 100 24 14 36 13 76 -5z m-125 -12 c6 -11 6 -35 -1 -65 -7 -33 -6 -57
1 -79 6 -17 11 -50 11 -74 0 -56 -17 -66 -94 -55 -5 0 -3 8 4 16 10 12 10 25
1 60 -7 28 -9 67 -4 98 4 29 6 58 5 64 -9 43 57 73 77 35z"/>
<path d="M4930 2718 c0 -23 -5 -56 -12 -74 -9 -26 -9 -39 1 -61 9 -17 15 -81
18 -168 2 -101 7 -143 18 -155 20 -22 36 -70 30 -89 -3 -9 -18 -24 -33 -33
l-28 -17 3 -106 c1 -59 6 -112 11 -119 14 -18 20 -52 11 -68 -4 -7 -4 -20 0
-27 5 -7 1 -29 -10 -50 -15 -32 -17 -54 -12 -145 6 -104 12 -120 43 -121 33 0
23 -105 -10 -105 -22 0 -35 -16 -19 -25 17 -11 135 -34 257 -50 62 -8 140 -24
175 -36 96 -33 167 -48 173 -37 4 6 5 29 4 51 -1 23 -2 57 -1 75 1 18 -6 44
-15 57 -14 21 -14 30 -4 56 9 21 11 61 7 136 -5 89 -3 115 13 160 23 65 28
213 9 260 -11 26 -10 34 1 48 11 14 15 14 27 2 12 -12 15 -65 15 -281 0 -147
-4 -336 -7 -420 -7 -148 -7 -154 14 -175 11 -11 26 -21 31 -21 7 0 10 244 10
713 l-1 712 -20 -37 c-11 -21 -23 -38 -28 -38 -16 0 -31 52 -31 109 0 32 -5
72 -11 90 l-11 31 -309 0 -309 0 0 -42z m675 -220 c-6 -25 6 -123 26 -208 16
-72 7 -110 -25 -110 -29 0 -66 43 -66 76 0 12 5 35 10 50 8 20 7 32 -5 50 -26
40 -39 30 -30 -23 9 -55 12 -133 7 -150 -2 -6 -10 -9 -17 -7 -7 3 -23 -4 -34
-15 -21 -21 -51 -27 -65 -13 -4 4 -77 7 -161 7 -84 0 -157 3 -161 7 -4 4 5 17
19 28 18 15 29 36 37 78 20 100 21 101 90 107 50 5 63 -10 55 -62 -7 -50 21
-156 35 -132 10 16 40 21 40 6 0 -5 3 -7 7 -4 3 4 9 48 12 99 6 87 7 93 33
107 22 13 33 13 57 4 30 -11 31 -10 62 43 17 30 36 54 44 54 7 0 15 7 19 15 9
23 17 18 11 -7z m-288 -475 c4 -9 0 -48 -8 -87 -19 -90 -12 -132 19 -128 16 2
20 -1 16 -12 -9 -23 -60 -20 -84 4 -19 19 -20 19 -30 -1 -12 -22 -35 -21 -36
2 0 8 -4 23 -9 33 -5 11 -3 49 4 91 6 40 11 79 9 86 -2 10 7 14 29 14 18 1 35
4 39 8 13 13 45 7 51 -10z"/>
<path d="M10 2184 l0 -134 24 6 c24 6 36 -13 36 -62 0 -28 -26 -50 -43 -36 -9
8 -13 -24 -15 -154 l-3 -164 35 0 c51 0 64 27 76 151 6 57 13 120 16 139 7 43
45 120 59 120 16 0 36 -16 34 -26 -1 -5 -1 -24 0 -42 2 -48 18 -30 26 28 4 27
12 53 18 58 19 15 107 14 108 0 5 -46 -16 -208 -37 -280 -6 -21 -34 -24 -52
-6 -9 9 -16 7 -32 -7 -21 -19 -24 -16 -33 30 -3 17 -5 15 -12 -8 -4 -17 -3
-37 3 -50 6 -12 13 -35 14 -52 3 -29 5 -30 53 -32 28 0 65 -4 83 -8 22 -5 39
-3 55 8 21 14 25 26 31 109 18 250 24 292 42 305 27 19 31 17 38 -26 6 -37 20
-51 51 -51 7 0 15 9 18 21 5 18 10 20 39 14 42 -9 48 -13 48 -31 0 -8 -10 -14
-24 -14 -14 0 -28 -5 -31 -10 -5 -8 -11 -8 -20 0 -11 9 -23 2 -54 -28 -35 -34
-41 -46 -47 -98 -4 -32 -13 -76 -21 -98 -19 -55 -17 -85 7 -94 11 -4 64 -4
118 1 53 4 113 5 133 3 65 -10 71 6 80 216 7 155 11 185 26 195 44 33 56 -2
43 -134 -12 -128 -12 -160 0 -123 l8 25 1 -27 c1 -34 -9 -59 -20 -52 -5 3 -9
-12 -9 -33 0 -28 3 -34 10 -23 8 13 10 12 10 -2 0 -10 4 -18 10 -18 6 0 9 67
9 173 0 139 3 190 20 264 12 51 21 106 21 122 l0 28 -162 7 c-90 3 -296 11
-458 16 -162 6 -303 12 -312 14 -16 4 -18 -8 -18 -130z"/>
<path d="M1095 2283 c-12 -9 -1 -468 12 -543 8 -45 34 -70 75 -70 27 0 58 36
58 67 0 15 4 40 9 57 12 42 38 132 52 184 15 52 30 66 53 49 15 -11 15 -16 -4
-71 -11 -33 -20 -67 -20 -78 0 -10 -11 -28 -25 -40 -20 -17 -25 -30 -23 -61 1
-21 5 -40 9 -43 4 -2 5 -13 2 -23 -3 -10 0 -22 5 -25 6 -3 13 7 17 23 l6 29
147 6 c298 13 1023 27 1043 21 44 -14 56 -97 21 -137 -14 -16 -13 -18 6 -18
41 0 52 11 52 50 0 37 1 39 36 42 21 2 42 10 48 20 13 21 9 26 -28 31 -16 2
-34 11 -41 20 -6 9 -15 14 -19 10 -3 -3 -16 -2 -29 4 -12 6 -31 14 -41 17 -17
6 -18 14 -13 99 10 137 16 152 59 152 41 0 69 22 125 98 26 35 33 51 25 59 -7
7 -110 14 -284 19 -944 27 -1208 38 -1293 54 -17 3 -35 2 -40 -2z m635 -198
c34 -17 36 -30 16 -77 -19 -44 -46 -133 -46 -152 0 -9 5 -16 12 -16 9 0 9 -3
1 -11 -14 -14 -110 -2 -116 14 -4 13 45 227 57 246 10 15 42 14 76 -4z m164
-27 c13 -20 13 -34 -4 -117 -18 -89 -18 -95 -2 -108 15 -12 11 -13 -28 -7 -25
3 -48 9 -53 13 -4 4 -1 40 8 80 8 40 15 87 15 105 0 29 14 45 47 55 2 1 9 -9
17 -21z m121 6 c9 -10 13 -24 10 -33 -6 -15 -18 -72 -31 -153 -5 -30 -3 -37
12 -41 11 -3 -5 -5 -33 -6 -49 -1 -53 1 -53 22 0 51 23 203 32 215 14 17 43
15 63 -4z m133 4 c13 -13 15 -82 6 -177 -7 -59 -8 -61 -35 -61 -53 0 -54 2
-54 118 0 59 4 113 8 120 10 15 59 16 75 0z"/>
<path d="M3144 2222 c-23 -12 -54 -14 -161 -9 -101 4 -134 2 -143 -8 -7 -8 -9
-91 -8 -246 l3 -234 86 -3 c76 -2 87 -1 105 19 16 18 18 32 15 88 -9 140 -4
194 19 213 33 26 72 22 111 -11 30 -26 32 -32 22 -53 -30 -60 -44 -195 -24
-227 13 -20 157 -27 191 -9 22 12 25 19 23 68 -5 128 -2 203 7 221 13 22 57
25 84 6 15 -11 17 -19 9 -43 -6 -17 -6 -47 -1 -74 5 -25 6 -66 3 -92 -3 -25
-2 -49 3 -52 6 -3 12 48 17 122 3 71 10 134 15 142 4 7 32 17 61 21 90 15 127
-21 74 -71 -36 -34 -32 -57 12 -75 35 -15 39 -15 51 2 7 10 12 37 10 60 -2 49
10 66 43 61 20 -2 25 -10 27 -43 2 -21 -3 -64 -11 -95 -24 -90 -26 -114 -12
-134 15 -20 35 -22 113 -11 64 9 64 10 60 160 l-3 110 -32 15 c-18 8 -34 20
-37 26 -3 7 11 29 30 50 55 63 52 64 -305 75 -253 8 -323 13 -370 28 -52 16
-61 17 -87 3z"/>
<path d="M3695 1711 c-18 -7 -551 -31 -758 -33 -57 -1 -91 -6 -98 -14 -7 -8
-8 -62 -5 -155 l6 -143 87 -34 c83 -32 123 -56 121 -71 -3 -30 3 -33 60 -27
95 12 87 -1 111 174 11 86 21 161 21 165 0 5 10 7 22 5 40 -6 48 -95 14 -164
-8 -16 -18 -57 -24 -91 -10 -73 -1 -82 66 -64 l39 11 6 113 c6 131 11 147 44
147 24 0 24 -2 21 -61 l-3 -61 33 -3 c28 -2 35 2 45 24 6 14 14 28 18 31 13
11 17 38 7 48 -7 7 -3 14 12 22 34 18 47 -3 20 -30 l-22 -22 27 -24 27 -23
-17 -67 c-19 -76 -12 -94 31 -78 23 8 26 15 29 68 5 82 56 183 99 192 59 13
67 -41 26 -174 -20 -63 -16 -75 26 -70 33 4 37 15 53 156 6 61 16 103 28 119
10 14 23 33 28 42 6 9 19 29 29 44 26 39 12 47 -89 47 -44 0 -89 2 -100 5 -11
2 -29 1 -40 -4z"/>
<path d="M2005 1599 c-115 -4 -318 -10 -450 -13 -163 -3 -241 -9 -243 -16 -3
-8 56 -10 214 -6 305 8 442 9 453 2 5 -4 80 1 167 9 86 8 198 15 248 15 50 0
98 5 106 10 17 11 -170 11 -495 -1z"/>
<path d="M590 1590 c-97 -4 -193 -13 -214 -20 -28 -9 -80 -10 -202 -5 l-164 7
0 -292 0 -293 48 6 c26 4 92 9 147 12 163 9 378 26 403 31 18 3 22 11 22 39 0
22 5 35 13 35 18 0 37 -21 37 -41 0 -26 12 -30 64 -23 l46 7 -6 34 c-6 33 -5
35 17 28 24 -7 404 -152 507 -194 28 -11 52 -16 52 -11 0 5 -23 77 -51 160
-27 82 -47 154 -44 160 3 5 15 10 26 10 27 0 24 20 -3 21 -13 0 -57 4 -98 8
-41 4 -79 6 -85 4 -5 -2 -11 -25 -13 -51 -2 -26 -7 -51 -11 -55 -5 -5 -54 -11
-110 -14 l-101 -6 0 39 c0 22 4 54 9 71 l9 33 -49 6 c-57 8 -71 20 -36 33 26
10 25 8 43 192 l6 66 -32 7 c-18 3 -38 5 -44 4 -6 0 -90 -4 -186 -8z m-33
-192 c5 -7 18 -39 28 -70 19 -56 19 -58 0 -79 -33 -35 -50 -40 -92 -25 -21 7
-53 11 -71 8 -31 -4 -33 -2 -30 19 2 17 11 25 28 27 37 5 100 71 100 105 0 29
20 37 37 15z"/>
<path d="M3047 934 c-3 -4 -4 -41 0 -83 6 -85 -5 -121 -37 -121 -17 0 -129
-29 -685 -177 -387 -103 -470 -123 -500 -123 -17 0 -37 -6 -44 -12 -11 -10
-14 -10 -18 0 -3 6 -13 12 -23 12 -10 0 -47 13 -82 29 -35 16 -91 41 -125 56
-35 15 -60 31 -57 36 3 5 -1 6 -9 4 -7 -3 -45 8 -83 26 -95 43 -446 196 -519
226 -33 13 -68 34 -78 45 -10 11 -21 17 -25 13 -4 -4 5 -16 20 -28 28 -21 955
-435 985 -440 10 -1 23 -6 29 -9 11 -7 329 72 959 238 72 19 167 44 211 55 80
20 82 21 95 61 22 69 12 218 -14 192z"/>
<path d="M2125 855 c-88 -7 -225 -18 -305 -24 -80 -6 -163 -14 -185 -17 l-40
-7 55 -24 c30 -13 60 -25 65 -26 6 -1 13 -6 16 -10 3 -5 46 1 95 12 49 12 183
39 298 61 285 55 285 57 1 35z"/>
</g>
</svg>
